<svg width="190" height="54" viewBox="0 0 190 54" fill="none" xmlns="http://www.w3.org/2000/svg">
<rect width="190" height="54" rx="4" fill="#111111"/>
<g clip-path="url(#clip0_38_50537)">
<path d="M26.6175 39.4015C25.9077 38.9818 25.2787 38.4631 24.7545 37.8655C24.1779 37.2487 23.6437 36.6015 23.1548 35.9275C22.0074 34.4333 21.1075 32.8003 20.4829 31.0785C19.7325 29.0785 19.3691 27.1615 19.3691 25.2865C19.3691 23.1925 19.8788 21.3645 20.8755 19.8285C21.6144 18.628 22.7007 17.6247 24.0221 16.9225C25.3027 16.2155 26.7742 15.8286 28.2814 15.8025C28.809 15.8025 29.3771 15.8705 29.9801 16.0005C30.4133 16.1095 30.9409 16.2815 31.5855 16.4955C32.4056 16.7765 32.8568 16.9485 33.0098 16.9905C33.4901 17.1465 33.894 17.2145 34.2113 17.2145C34.452 17.2145 34.7918 17.1465 35.1776 17.0425C35.3948 16.9745 35.8043 16.8545 36.3904 16.6315C36.9709 16.4435 37.4276 16.2825 37.791 16.1625C38.3479 16.0165 38.8868 15.8815 39.3671 15.8135C39.9366 15.7337 40.5146 15.7126 41.0895 15.7505C42.0858 15.8084 43.0672 15.9961 44.0021 16.3075C45.531 16.8545 46.7674 17.7085 47.6876 18.9225C47.2987 19.1356 46.9336 19.3814 46.5975 19.6565C45.8658 20.2331 45.2426 20.91 44.7514 21.6615C44.1094 22.6886 43.7765 23.8456 43.785 25.0205C43.8086 26.4635 44.2249 27.7345 45.045 28.8335C45.648 29.648 46.4316 30.3446 47.3479 30.8805C47.817 31.1615 48.2209 31.3545 48.6079 31.4845C48.4268 31.9845 48.2333 32.4685 48.0049 32.9485C47.4869 34.0249 46.8592 35.0569 46.1295 36.0315C45.4793 36.8705 44.9696 37.4955 44.5826 37.9115C43.9796 38.5465 43.3991 39.0315 42.813 39.3695C42.1684 39.7495 41.4068 39.9525 40.6328 39.9525C40.1086 39.9704 39.5845 39.914 39.0803 39.7855C38.6471 39.6555 38.2185 39.5145 37.7966 39.3535C37.358 39.1744 36.9058 39.0231 36.4433 38.9005C35.2999 38.6395 34.1012 38.6378 32.9569 38.8955C32.4878 39.0155 32.0366 39.1555 31.5911 39.3275C30.9645 39.5615 30.5483 39.7185 30.3075 39.7855C29.8271 39.9105 29.3288 39.9885 28.8248 40.0145C28.0451 40.0145 27.3184 39.8165 26.5984 39.4155L26.6175 39.4015ZM36.9 14.7865C35.8808 15.2395 34.9076 15.4325 33.9413 15.3695C33.7894 14.5045 33.9413 13.6195 34.3451 12.6505C34.689 11.8296 35.197 11.0707 35.8448 10.4105C36.5288 9.71553 37.3588 9.14589 38.2883 8.73351C39.2783 8.28051 40.2221 8.03551 41.1244 7.99951C41.2414 8.90551 41.1244 9.79651 40.7498 10.7595C40.4031 11.6108 39.896 12.4034 39.2501 13.1035C38.591 13.7994 37.782 14.3713 36.8708 14.7855L36.9 14.7865Z" fill="white"/>
</g>
<path d="M70.936 10.432V18.04H72.028V21.256H70.996V19H65.104V21.256H64.072V18.04H64.732C65.02 17.544 65.292 16.988 65.548 16.372C65.812 15.756 66.044 15.112 66.244 14.44C66.444 13.76 66.608 13.08 66.736 12.4C66.864 11.72 66.944 11.064 66.976 10.432H70.936ZM67.924 11.404C67.892 11.868 67.812 12.392 67.684 12.976C67.564 13.56 67.408 14.16 67.216 14.776C67.032 15.384 66.824 15.972 66.592 16.54C66.368 17.108 66.128 17.608 65.872 18.04H69.868V11.404H67.924ZM79.3089 15.772C79.3089 16.308 79.2369 16.784 79.0929 17.2C78.9569 17.608 78.7569 17.956 78.4929 18.244C78.2369 18.532 77.9209 18.752 77.5449 18.904C77.1769 19.048 76.7649 19.12 76.3089 19.12C75.8849 19.12 75.4929 19.048 75.1329 18.904C74.7729 18.752 74.4609 18.532 74.1969 18.244C73.9329 17.956 73.7249 17.608 73.5729 17.2C73.4289 16.784 73.3569 16.308 73.3569 15.772C73.3569 15.06 73.4769 14.46 73.7169 13.972C73.9569 13.476 74.3009 13.1 74.7489 12.844C75.1969 12.58 75.7289 12.448 76.3449 12.448C76.9289 12.448 77.4409 12.58 77.8809 12.844C78.3289 13.1 78.6769 13.476 78.9249 13.972C79.1809 14.46 79.3089 15.06 79.3089 15.772ZM74.4489 15.772C74.4489 16.276 74.5129 16.716 74.6409 17.092C74.7769 17.46 74.9849 17.744 75.2649 17.944C75.5449 18.144 75.9009 18.244 76.3329 18.244C76.7649 18.244 77.1209 18.144 77.4009 17.944C77.6809 17.744 77.8849 17.46 78.0129 17.092C78.1489 16.716 78.2169 16.276 78.2169 15.772C78.2169 15.26 78.1489 14.824 78.0129 14.464C77.8769 14.104 77.6689 13.828 77.3889 13.636C77.1169 13.436 76.7609 13.336 76.3209 13.336C75.6649 13.336 75.1889 13.552 74.8929 13.984C74.5969 14.416 74.4489 15.012 74.4489 15.772ZM83.9625 19.12C83.3945 19.12 82.8865 19.004 82.4385 18.772C81.9985 18.54 81.6505 18.18 81.3945 17.692C81.1465 17.204 81.0225 16.58 81.0225 15.82C81.0225 15.028 81.1545 14.384 81.4185 13.888C81.6825 13.392 82.0385 13.028 82.4865 12.796C82.9425 12.564 83.4585 12.448 84.0345 12.448C84.3625 12.448 84.6785 12.484 84.9825 12.556C85.2865 12.62 85.5345 12.7 85.7265 12.796L85.4025 13.672C85.2105 13.6 84.9865 13.532 84.7305 13.468C84.4745 13.404 84.2345 13.372 84.0105 13.372C83.5785 13.372 83.2225 13.464 82.9425 13.648C82.6625 13.832 82.4545 14.104 82.3185 14.464C82.1825 14.824 82.1145 15.272 82.1145 15.808C82.1145 16.32 82.1825 16.756 82.3185 17.116C82.4545 17.476 82.6585 17.748 82.9305 17.932C83.2025 18.116 83.5425 18.208 83.9505 18.208C84.3025 18.208 84.6105 18.172 84.8745 18.1C85.1465 18.028 85.3945 17.94 85.6185 17.836V18.772C85.4025 18.884 85.1625 18.968 84.8985 19.024C84.6425 19.088 84.3305 19.12 83.9625 19.12ZM91.9881 13.456H89.8881V19H88.8441V13.456H86.7681V12.568H91.9881V13.456ZM92.6472 12.568H93.7752L95.1672 16.228C95.2472 16.444 95.3192 16.652 95.3832 16.852C95.4552 17.052 95.5192 17.248 95.5752 17.44C95.6312 17.624 95.6752 17.804 95.7072 17.98H95.7552C95.8032 17.78 95.8792 17.52 95.9832 17.2C96.0872 16.872 96.1952 16.544 96.3072 16.216L97.6152 12.568H98.7552L95.9832 19.888C95.8312 20.288 95.6512 20.636 95.4432 20.932C95.2432 21.236 94.9952 21.468 94.6992 21.628C94.4112 21.796 94.0592 21.88 93.6432 21.88C93.4512 21.88 93.2832 21.868 93.1392 21.844C92.9952 21.828 92.8712 21.808 92.7672 21.784V20.944C92.8552 20.96 92.9592 20.976 93.0792 20.992C93.2072 21.008 93.3392 21.016 93.4752 21.016C93.7232 21.016 93.9352 20.968 94.1112 20.872C94.2952 20.784 94.4512 20.652 94.5792 20.476C94.7072 20.308 94.8152 20.108 94.9032 19.876L95.2392 19.024L92.6472 12.568ZM105.608 12.568V19H104.552V13.468H101.228V19H100.172V12.568H105.608ZM109.117 12.568V15.244H112.609V12.568H113.665V19H112.609V16.132H109.117V19H108.061V12.568H109.117ZM121.693 15.772C121.693 16.308 121.621 16.784 121.477 17.2C121.341 17.608 121.141 17.956 120.877 18.244C120.621 18.532 120.305 18.752 119.929 18.904C119.561 19.048 119.149 19.12 118.693 19.12C118.269 19.12 117.877 19.048 117.517 18.904C117.157 18.752 116.845 18.532 116.581 18.244C116.317 17.956 116.109 17.608 115.957 17.2C115.813 16.784 115.741 16.308 115.741 15.772C115.741 15.06 115.861 14.46 116.101 13.972C116.341 13.476 116.685 13.1 117.133 12.844C117.581 12.58 118.113 12.448 118.729 12.448C119.313 12.448 119.825 12.58 120.265 12.844C120.713 13.1 121.061 13.476 121.309 13.972C121.565 14.46 121.693 15.06 121.693 15.772ZM116.833 15.772C116.833 16.276 116.897 16.716 117.025 17.092C117.161 17.46 117.369 17.744 117.649 17.944C117.929 18.144 118.285 18.244 118.717 18.244C119.149 18.244 119.505 18.144 119.785 17.944C120.065 17.744 120.269 17.46 120.397 17.092C120.533 16.716 120.601 16.276 120.601 15.772C120.601 15.26 120.533 14.824 120.397 14.464C120.261 14.104 120.053 13.828 119.773 13.636C119.501 13.436 119.145 13.336 118.705 13.336C118.049 13.336 117.573 13.552 117.277 13.984C116.981 14.416 116.833 15.012 116.833 15.772ZM132.104 14.188C132.104 14.588 131.984 14.9 131.744 15.124C131.504 15.348 131.196 15.5 130.82 15.58V15.628C131.22 15.684 131.568 15.828 131.864 16.06C132.16 16.284 132.308 16.636 132.308 17.116C132.308 17.388 132.256 17.64 132.152 17.872C132.056 18.104 131.904 18.304 131.696 18.472C131.488 18.64 131.22 18.772 130.892 18.868C130.564 18.956 130.168 19 129.704 19H126.932V12.568H129.692C130.148 12.568 130.556 12.62 130.916 12.724C131.284 12.82 131.572 12.988 131.78 13.228C131.996 13.46 132.104 13.78 132.104 14.188ZM131.216 17.116C131.216 16.748 131.076 16.484 130.796 16.324C130.516 16.164 130.104 16.084 129.56 16.084H127.988V18.148H129.584C130.112 18.148 130.516 18.072 130.796 17.92C131.076 17.76 131.216 17.492 131.216 17.116ZM131.036 14.32C131.036 14.016 130.924 13.796 130.7 13.66C130.484 13.516 130.128 13.444 129.632 13.444H127.988V15.208H129.44C129.96 15.208 130.356 15.136 130.628 14.992C130.9 14.848 131.036 14.624 131.036 14.32Z" fill="#BDBDBD"/>
<path d="M69.7 26.8H71.82L77.34 41H74.98L73.48 37.14H68L66.52 41H64.14L69.7 26.8ZM73.04 35.48L70.76 29.26L68.4 35.48H73.04ZM84.9061 41.2C84.0661 41.2 83.3261 41 82.6861 40.6C82.0461 40.2 81.5394 39.68 81.1661 39.04V45.26H78.9661V30.54H80.9061V32.42C81.3061 31.7933 81.8261 31.2933 82.4661 30.92C83.1061 30.5467 83.8194 30.36 84.6061 30.36C85.5661 30.36 86.4128 30.6133 87.1461 31.12C87.8928 31.6133 88.4794 32.2733 88.9061 33.1C89.3328 33.9133 89.5461 34.8 89.5461 35.76C89.5461 36.7733 89.3461 37.6933 88.9461 38.52C88.5461 39.3333 87.9994 39.9867 87.3061 40.48C86.6128 40.96 85.8128 41.2 84.9061 41.2ZM84.1861 39.32C84.8128 39.32 85.3528 39.1533 85.8061 38.82C86.2728 38.4733 86.6328 38.0333 86.8861 37.5C87.1528 36.9533 87.2861 36.3733 87.2861 35.76C87.2861 35.12 87.1394 34.5333 86.8461 34C86.5661 33.4667 86.1794 33.04 85.6861 32.72C85.2061 32.4 84.6528 32.24 84.0261 32.24C83.6528 32.24 83.2594 32.3333 82.8461 32.52C82.4461 32.7067 82.0928 32.9533 81.7861 33.26C81.4794 33.5667 81.2728 33.9133 81.1661 34.3V37.04C81.4328 37.68 81.8394 38.22 82.3861 38.66C82.9461 39.1 83.5461 39.32 84.1861 39.32ZM97.6147 41.2C96.7747 41.2 96.0347 41 95.3947 40.6C94.7547 40.2 94.248 39.68 93.8747 39.04V45.26H91.6747V30.54H93.6147V32.42C94.0147 31.7933 94.5347 31.2933 95.1747 30.92C95.8147 30.5467 96.528 30.36 97.3147 30.36C98.2747 30.36 99.1214 30.6133 99.8547 31.12C100.601 31.6133 101.188 32.2733 101.615 33.1C102.041 33.9133 102.255 34.8 102.255 35.76C102.255 36.7733 102.055 37.6933 101.655 38.52C101.255 39.3333 100.708 39.9867 100.015 40.48C99.3214 40.96 98.5214 41.2 97.6147 41.2ZM96.8947 39.32C97.5214 39.32 98.0614 39.1533 98.5147 38.82C98.9814 38.4733 99.3414 38.0333 99.5947 37.5C99.8614 36.9533 99.9947 36.3733 99.9947 35.76C99.9947 35.12 99.848 34.5333 99.5547 34C99.2747 33.4667 98.888 33.04 98.3947 32.72C97.9147 32.4 97.3614 32.24 96.7347 32.24C96.3614 32.24 95.968 32.3333 95.5547 32.52C95.1547 32.7067 94.8014 32.9533 94.4947 33.26C94.188 33.5667 93.9814 33.9133 93.8747 34.3V37.04C94.1414 37.68 94.548 38.22 95.0947 38.66C95.6547 39.1 96.2547 39.32 96.8947 39.32ZM118.155 30.14C117.981 29.94 117.695 29.7333 117.295 29.52C116.908 29.2933 116.455 29.1 115.935 28.94C115.415 28.78 114.875 28.7 114.315 28.7C113.368 28.7 112.668 28.8733 112.215 29.22C111.775 29.5667 111.555 30.0467 111.555 30.66C111.555 31.1133 111.681 31.4733 111.935 31.74C112.188 31.9933 112.575 32.2133 113.095 32.4C113.615 32.5733 114.268 32.7533 115.055 32.94C116.015 33.1667 116.841 33.44 117.535 33.76C118.241 34.0667 118.781 34.48 119.155 35C119.541 35.52 119.735 36.2067 119.735 37.06C119.735 38.0333 119.501 38.82 119.035 39.42C118.568 40.02 117.935 40.46 117.135 40.74C116.348 41.0067 115.481 41.14 114.535 41.14C113.455 41.14 112.408 40.9733 111.395 40.64C110.381 40.3067 109.475 39.8333 108.675 39.22L109.695 37.3C109.921 37.5267 110.281 37.7867 110.775 38.08C111.268 38.36 111.841 38.6067 112.495 38.82C113.161 39.02 113.855 39.12 114.575 39.12C115.455 39.12 116.135 38.9667 116.615 38.66C117.095 38.34 117.335 37.8867 117.335 37.3C117.335 36.82 117.175 36.44 116.855 36.16C116.548 35.8667 116.101 35.6267 115.515 35.44C114.941 35.24 114.248 35.0333 113.435 34.82C112.501 34.58 111.721 34.3067 111.095 34C110.468 33.6933 109.995 33.3067 109.675 32.84C109.368 32.3733 109.215 31.7667 109.215 31.02C109.215 30.0867 109.441 29.3 109.895 28.66C110.348 28.0067 110.961 27.52 111.735 27.2C112.521 26.8667 113.401 26.7 114.375 26.7C115.335 26.7 116.221 26.8533 117.035 27.16C117.848 27.4667 118.561 27.8467 119.175 28.3L118.155 30.14ZM127.456 40.46C127.176 40.5933 126.79 40.7467 126.296 40.92C125.803 41.08 125.276 41.16 124.716 41.16C124.023 41.16 123.423 40.9733 122.916 40.6C122.423 40.2267 122.176 39.62 122.176 38.78V32.24H120.796V30.54H122.176V27.1H124.376V30.54H126.656V32.24H124.376V38.08C124.403 38.4533 124.516 38.7267 124.716 38.9C124.93 39.06 125.19 39.14 125.496 39.14C125.803 39.14 126.096 39.0867 126.376 38.98C126.656 38.8733 126.863 38.7867 126.996 38.72L127.456 40.46ZM133.693 41.2C132.6 41.2 131.647 40.9533 130.833 40.46C130.033 39.9533 129.413 39.2933 128.973 38.48C128.533 37.6533 128.313 36.7533 128.313 35.78C128.313 34.8067 128.533 33.9133 128.973 33.1C129.427 32.2733 130.053 31.6133 130.853 31.12C131.667 30.6133 132.613 30.36 133.693 30.36C134.773 30.36 135.713 30.6133 136.513 31.12C137.327 31.6133 137.953 32.2733 138.393 33.1C138.847 33.9133 139.073 34.8067 139.073 35.78C139.073 36.7533 138.853 37.6533 138.413 38.48C137.973 39.2933 137.347 39.9533 136.533 40.46C135.733 40.9533 134.787 41.2 133.693 41.2ZM130.573 35.8C130.573 36.4667 130.713 37.0667 130.993 37.6C131.273 38.1333 131.647 38.5533 132.113 38.86C132.58 39.1667 133.107 39.32 133.693 39.32C134.267 39.32 134.787 39.1667 135.253 38.86C135.733 38.54 136.113 38.1133 136.393 37.58C136.673 37.0467 136.813 36.4467 136.813 35.78C136.813 35.1133 136.673 34.5133 136.393 33.98C136.113 33.4467 135.733 33.0267 135.253 32.72C134.787 32.4 134.267 32.24 133.693 32.24C133.12 32.24 132.593 32.4 132.113 32.72C131.647 33.0267 131.273 33.4533 130.993 34C130.713 34.5333 130.573 35.1333 130.573 35.8ZM147.055 32.44C146.201 32.4667 145.441 32.6667 144.775 33.04C144.121 33.4 143.655 33.92 143.375 34.6V41H141.175V30.54H143.215V32.88C143.575 32.16 144.048 31.5867 144.635 31.16C145.221 30.72 145.841 30.48 146.495 30.44C146.615 30.44 146.721 30.44 146.815 30.44C146.908 30.44 146.988 30.4467 147.055 30.46V32.44ZM153.369 41.2C152.289 41.2 151.343 40.9533 150.529 40.46C149.716 39.9667 149.083 39.3133 148.629 38.5C148.176 37.6733 147.949 36.7733 147.949 35.8C147.949 34.8133 148.176 33.9067 148.629 33.08C149.083 32.2533 149.716 31.5933 150.529 31.1C151.343 30.6067 152.296 30.36 153.389 30.36C154.483 30.36 155.429 30.6133 156.229 31.12C157.029 31.6133 157.643 32.2667 158.069 33.08C158.509 33.8933 158.729 34.7667 158.729 35.7C158.729 36.0333 158.709 36.3 158.669 36.5H150.289C150.329 37.1133 150.496 37.6533 150.789 38.12C151.096 38.5733 151.476 38.9333 151.929 39.2C152.396 39.4533 152.903 39.58 153.449 39.58C154.036 39.58 154.589 39.4333 155.109 39.14C155.629 38.8467 155.989 38.46 156.189 37.98L158.069 38.52C157.709 39.3067 157.109 39.9533 156.269 40.46C155.443 40.9533 154.476 41.2 153.369 41.2ZM150.229 35.04H156.549C156.496 34.44 156.323 33.9133 156.029 33.46C155.736 32.9933 155.356 32.6333 154.889 32.38C154.436 32.1133 153.929 31.98 153.369 31.98C152.823 31.98 152.316 32.1133 151.849 32.38C151.396 32.6333 151.023 32.9933 150.729 33.46C150.436 33.9133 150.269 34.44 150.229 35.04Z" fill="white"/>
<defs>
<clipPath id="clip0_38_50537">
<rect width="36" height="32" fill="white" transform="translate(16 8)"/>
</clipPath>
</defs>
</svg>
