<svg width="190" height="54" viewBox="0 0 190 54" fill="none" xmlns="http://www.w3.org/2000/svg">
<rect width="190" height="54" rx="4" fill="#111111"/>
<g clip-path="url(#clip0_38_50537)">
<path d="M26.6175 39.4015C25.9077 38.9818 25.2787 38.4631 24.7545 37.8655C24.1779 37.2487 23.6437 36.6015 23.1548 35.9275C22.0074 34.4333 21.1075 32.8003 20.4829 31.0785C19.7325 29.0785 19.3691 27.1615 19.3691 25.2865C19.3691 23.1925 19.8788 21.3645 20.8755 19.8285C21.6144 18.628 22.7007 17.6247 24.0221 16.9225C25.3027 16.2155 26.7742 15.8286 28.2814 15.8025C28.809 15.8025 29.3771 15.8705 29.9801 16.0005C30.4133 16.1095 30.9409 16.2815 31.5855 16.4955C32.4056 16.7765 32.8568 16.9485 33.0098 16.9905C33.4901 17.1465 33.894 17.2145 34.2113 17.2145C34.452 17.2145 34.7918 17.1465 35.1776 17.0425C35.3948 16.9745 35.8043 16.8545 36.3904 16.6315C36.9709 16.4435 37.4276 16.2825 37.791 16.1625C38.3479 16.0165 38.8868 15.8815 39.3671 15.8135C39.9366 15.7337 40.5146 15.7126 41.0895 15.7505C42.0858 15.8084 43.0672 15.9961 44.0021 16.3075C45.531 16.8545 46.7674 17.7085 47.6876 18.9225C47.2987 19.1356 46.9336 19.3814 46.5975 19.6565C45.8658 20.2331 45.2426 20.91 44.7514 21.6615C44.1094 22.6886 43.7765 23.8456 43.785 25.0205C43.8086 26.4635 44.2249 27.7345 45.045 28.8335C45.648 29.648 46.4316 30.3446 47.3479 30.8805C47.817 31.1615 48.2209 31.3545 48.6079 31.4845C48.4268 31.9845 48.2333 32.4685 48.0049 32.9485C47.4869 34.0249 46.8592 35.0569 46.1295 36.0315C45.4793 36.8705 44.9696 37.4955 44.5826 37.9115C43.9796 38.5465 43.3991 39.0315 42.813 39.3695C42.1684 39.7495 41.4068 39.9525 40.6328 39.9525C40.1086 39.9704 39.5845 39.914 39.0803 39.7855C38.6471 39.6555 38.2185 39.5145 37.7966 39.3535C37.358 39.1744 36.9058 39.0231 36.4433 38.9005C35.2999 38.6395 34.1012 38.6378 32.9569 38.8955C32.4878 39.0155 32.0366 39.1555 31.5911 39.3275C30.9645 39.5615 30.5483 39.7185 30.3075 39.7855C29.8271 39.9105 29.3288 39.9885 28.8248 40.0145C28.0451 40.0145 27.3184 39.8165 26.5984 39.4155L26.6175 39.4015ZM36.9 14.7865C35.8808 15.2395 34.9076 15.4325 33.9413 15.3695C33.7894 14.5045 33.9413 13.6195 34.3451 12.6505C34.689 11.8296 35.197 11.0707 35.8448 10.4105C36.5288 9.71553 37.3588 9.14589 38.2883 8.73351C39.2783 8.28051 40.2221 8.03551 41.1244 7.99951C41.2414 8.90551 41.1244 9.79651 40.7498 10.7595C40.4031 11.6108 39.896 12.4034 39.2501 13.1035C38.591 13.7994 37.782 14.3713 36.8708 14.7855L36.9 14.7865Z" fill="white"/>
</g>
<path d="M67.1699 14.9805V19H66.4141V14.9922L64.2402 10.5977H65.0547L66.7832 14.0898L68.5117 10.5977H69.3262L67.1699 14.9805ZM74.0914 19L73.693 18.3906C73.5289 18.6133 73.3238 18.791 73.0777 18.9238C72.8316 19.0527 72.5621 19.1172 72.2691 19.1172H72.0875C71.8453 19.1172 71.6168 19.0723 71.402 18.9824C71.1871 18.8887 70.9996 18.7617 70.8395 18.6016C70.6793 18.4414 70.5523 18.2539 70.4586 18.0391C70.3688 17.8242 70.3238 17.5957 70.3238 17.3535V13H71.0445V17.3945C71.0445 17.5391 71.0719 17.6758 71.1266 17.8047C71.1813 17.9297 71.2555 18.0391 71.3492 18.1328C71.443 18.2266 71.5523 18.3008 71.6773 18.3555C71.8063 18.4102 71.943 18.4375 72.0875 18.4375H72.568C72.7125 18.4375 72.8473 18.4102 72.9723 18.3555C73.1012 18.3008 73.2125 18.2266 73.3063 18.1328C73.4 18.0391 73.4742 17.9297 73.5289 17.8047C73.5836 17.6758 73.6109 17.5391 73.6109 17.3945V13H74.3316V19H74.0914ZM79.7238 19L77.2746 16L79.7238 13H80.6613L78.1535 16L80.6613 19H79.7238ZM76.4133 19V10.5977H77.134V19H76.4133ZM82.2625 19V10.5977H82.9832V19H82.2625ZM88.8383 19L88.4398 18.4023C88.2758 18.6172 88.0707 18.791 87.8246 18.9238C87.5785 19.0527 87.309 19.1172 87.016 19.1172H86.8344C86.5922 19.1172 86.3637 19.0723 86.1488 18.9824C85.934 18.8887 85.7465 18.7617 85.5863 18.6016C85.4262 18.4414 85.2992 18.2539 85.2055 18.0391C85.1156 17.8242 85.0707 17.5957 85.0707 17.3535V17.2949C85.0707 17.0527 85.1156 16.8242 85.2055 16.6094C85.2992 16.3945 85.4262 16.207 85.5863 16.0469C85.7465 15.8867 85.934 15.7617 86.1488 15.6719C86.3637 15.5781 86.5922 15.5312 86.8344 15.5312H88.3578V14.6055C88.3578 14.4609 88.3305 14.3262 88.2758 14.2012C88.2211 14.0723 88.1469 13.9609 88.0531 13.8672C87.9594 13.7734 87.848 13.6992 87.7191 13.6445C87.5941 13.5898 87.4594 13.5625 87.3148 13.5625H86.893C86.7484 13.5625 86.6117 13.5898 86.4828 13.6445C86.3578 13.6992 86.2484 13.7734 86.1547 13.8672C86.0609 13.9609 85.9867 14.0723 85.932 14.2012C85.8773 14.3262 85.85 14.4609 85.85 14.6055V14.8223L85.1293 14.7051V14.6465C85.1293 14.4043 85.1742 14.1758 85.2641 13.9609C85.3578 13.7461 85.4848 13.5586 85.6449 13.3984C85.8051 13.2383 85.9926 13.1133 86.2074 13.0234C86.4223 12.9297 86.6508 12.8828 86.893 12.8828H87.3148C87.557 12.8828 87.7855 12.9297 88.0004 13.0234C88.2152 13.1133 88.4027 13.2383 88.5629 13.3984C88.723 13.5586 88.848 13.7461 88.9379 13.9609C89.0316 14.1758 89.0785 14.4043 89.0785 14.6465V19H88.8383ZM88.3578 16.0938H86.8344C86.6898 16.0938 86.5531 16.1211 86.4242 16.1758C86.2992 16.2305 86.1898 16.3066 86.0961 16.4043C86.0023 16.498 85.9281 16.6094 85.8734 16.7383C85.8188 16.8633 85.7914 16.998 85.7914 17.1426V17.3945C85.7914 17.5391 85.8188 17.6758 85.8734 17.8047C85.9281 17.9297 86.0023 18.0391 86.0961 18.1328C86.1898 18.2266 86.2992 18.3008 86.4242 18.3555C86.5531 18.4102 86.6898 18.4375 86.8344 18.4375H87.3148C87.4594 18.4375 87.5941 18.4102 87.7191 18.3555C87.848 18.3008 87.9594 18.2266 88.0531 18.1328C88.1469 18.0391 88.2211 17.9297 88.2758 17.8047C88.3305 17.6758 88.3578 17.5391 88.3578 17.3945V16.0938ZM94.9277 17.3535C94.9277 17.5957 94.8809 17.8242 94.7871 18.0391C94.6973 18.2539 94.5723 18.4414 94.4121 18.6016C94.252 18.7617 94.0645 18.8887 93.8496 18.9824C93.6348 19.0723 93.4062 19.1172 93.1641 19.1172H92.6836C92.4414 19.1172 92.2129 19.0723 91.998 18.9824C91.7832 18.8887 91.5957 18.7617 91.4355 18.6016C91.2754 18.4414 91.1484 18.2539 91.0547 18.0391C90.9648 17.8242 90.9199 17.5957 90.9199 17.3535V10.5977H91.6406V13.5039C91.8047 13.3086 92.002 13.1562 92.2324 13.0469C92.4629 12.9375 92.7129 12.8828 92.9824 12.8828H93.1641C93.4062 12.8828 93.6348 12.9297 93.8496 13.0234C94.0645 13.1133 94.252 13.2383 94.4121 13.3984C94.5723 13.5586 94.6973 13.7461 94.7871 13.9609C94.8809 14.1758 94.9277 14.4043 94.9277 14.6465V17.3535ZM94.207 14.6055C94.207 14.4609 94.1797 14.3262 94.125 14.2012C94.0703 14.0723 93.9961 13.9609 93.9023 13.8672C93.8086 13.7734 93.6973 13.6992 93.5684 13.6445C93.4434 13.5898 93.3086 13.5625 93.1641 13.5625H92.6836C92.5391 13.5625 92.4023 13.5898 92.2734 13.6445C92.1484 13.6992 92.0391 13.7734 91.9453 13.8672C91.8516 13.9609 91.7773 14.0723 91.7227 14.2012C91.668 14.3262 91.6406 14.4609 91.6406 14.6055V17.3945C91.6406 17.5391 91.668 17.6758 91.7227 17.8047C91.7773 17.9297 91.8516 18.0391 91.9453 18.1328C92.0391 18.2266 92.1484 18.3008 92.2734 18.3555C92.4023 18.4102 92.5391 18.4375 92.6836 18.4375H93.1641C93.3086 18.4375 93.4434 18.4102 93.5684 18.3555C93.6973 18.3008 93.8086 18.2266 93.9023 18.1328C93.9961 18.0391 94.0703 17.9297 94.125 17.8047C94.1797 17.6758 94.207 17.5391 94.207 17.3945V14.6055ZM103.943 17.3535C103.943 17.5957 103.896 17.8242 103.802 18.0391C103.712 18.2539 103.587 18.4414 103.427 18.6016C103.267 18.7617 103.079 18.8887 102.864 18.9824C102.65 19.0723 102.421 19.1172 102.179 19.1172H101.698C101.456 19.1172 101.228 19.0723 101.013 18.9824C100.798 18.8887 100.611 18.7617 100.45 18.6016C100.29 18.4414 100.163 18.2539 100.07 18.0391C99.9797 17.8242 99.9348 17.5957 99.9348 17.3535V14.6465C99.9348 14.4043 99.9797 14.1758 100.07 13.9609C100.163 13.7461 100.29 13.5586 100.45 13.3984C100.611 13.2383 100.798 13.1133 101.013 13.0234C101.228 12.9297 101.456 12.8828 101.698 12.8828H102.179C102.421 12.8828 102.65 12.9297 102.864 13.0234C103.079 13.1133 103.267 13.2383 103.427 13.3984C103.587 13.5586 103.712 13.7461 103.802 13.9609C103.896 14.1758 103.943 14.4043 103.943 14.6465V17.3535ZM103.222 14.6055C103.222 14.4609 103.195 14.3262 103.14 14.2012C103.085 14.0723 103.011 13.9609 102.917 13.8672C102.823 13.7734 102.712 13.6992 102.583 13.6445C102.458 13.5898 102.323 13.5625 102.179 13.5625H101.698C101.554 13.5625 101.417 13.5898 101.288 13.6445C101.163 13.6992 101.054 13.7734 100.96 13.8672C100.866 13.9609 100.792 14.0723 100.737 14.2012C100.683 14.3262 100.655 14.4609 100.655 14.6055V17.3945C100.655 17.5391 100.683 17.6758 100.737 17.8047C100.792 17.9297 100.866 18.0391 100.96 18.1328C101.054 18.2266 101.163 18.3008 101.288 18.3555C101.417 18.4102 101.554 18.4375 101.698 18.4375H102.179C102.323 18.4375 102.458 18.4102 102.583 18.3555C102.712 18.3008 102.823 18.2266 102.917 18.1328C103.011 18.0391 103.085 17.9297 103.14 17.8047C103.195 17.6758 103.222 17.5391 103.222 17.3945V14.6055ZM106.024 19V10.5977H106.745V19H106.024ZM109.014 11.5586V10.5977H109.852V11.5586H109.014ZM109.073 19V13H109.793V19H109.073ZM115.168 19V14.6055C115.168 14.4609 115.141 14.3262 115.086 14.2012C115.031 14.0723 114.957 13.9609 114.863 13.8672C114.77 13.7734 114.658 13.6992 114.529 13.6445C114.404 13.5898 114.27 13.5625 114.125 13.5625H113.645C113.5 13.5625 113.363 13.5898 113.234 13.6445C113.109 13.6992 113 13.7734 112.906 13.8672C112.812 13.9609 112.738 14.0723 112.684 14.2012C112.629 14.3262 112.602 14.4609 112.602 14.6055V19H111.881V13H112.121L112.514 13.6094C112.678 13.3867 112.883 13.2109 113.129 13.082C113.379 12.9492 113.65 12.8828 113.943 12.8828H114.125C114.367 12.8828 114.596 12.9297 114.811 13.0234C115.025 13.1133 115.213 13.2383 115.373 13.3984C115.533 13.5586 115.658 13.7461 115.748 13.9609C115.842 14.1758 115.889 14.4043 115.889 14.6465V19H115.168ZM121.796 19.7559C121.796 19.998 121.75 20.2207 121.656 20.4238C121.566 20.627 121.441 20.8008 121.281 20.9453C121.121 21.0898 120.933 21.2012 120.718 21.2793C120.504 21.3613 120.275 21.4023 120.033 21.4023H119.734C119.492 21.4023 119.263 21.3613 119.048 21.2793C118.834 21.2012 118.646 21.0898 118.486 20.9453C118.326 20.8008 118.199 20.627 118.105 20.4238C118.015 20.2207 117.97 19.998 117.97 19.7559V19.7324C117.97 19.498 118.013 19.2832 118.099 19.0879C118.185 18.8926 118.302 18.7227 118.451 18.5781C118.263 18.4648 118.113 18.3125 118 18.1211C117.89 17.9258 117.836 17.7109 117.836 17.4766C117.836 17.2656 117.88 17.0703 117.97 16.8906C118.06 16.707 118.183 16.5586 118.339 16.4453C118.152 16.2812 118.004 16.084 117.894 15.8535C117.785 15.623 117.73 15.3711 117.73 15.0977V14.6465C117.73 14.4043 117.775 14.1758 117.865 13.9609C117.959 13.7461 118.086 13.5586 118.246 13.3984C118.406 13.2383 118.593 13.1133 118.808 13.0234C119.023 12.9297 119.252 12.8828 119.494 12.8828H119.793C120.086 12.8828 120.355 12.9492 120.601 13.082C120.851 13.2109 121.058 13.3867 121.222 13.6094L121.615 13H121.855V15.0977C121.855 15.3398 121.808 15.5684 121.714 15.7832C121.625 15.998 121.5 16.1855 121.339 16.3457C121.179 16.5059 120.992 16.6328 120.777 16.7266C120.562 16.8164 120.334 16.8613 120.091 16.8613H119.048C118.966 16.8613 118.888 16.8789 118.814 16.9141C118.74 16.9453 118.673 16.9883 118.615 17.043C118.56 17.0977 118.517 17.1641 118.486 17.2422C118.455 17.3164 118.439 17.3945 118.439 17.4766C118.439 17.5586 118.455 17.6367 118.486 17.7109C118.517 17.7852 118.56 17.8516 118.615 17.9102C118.673 17.9648 118.74 18.0078 118.814 18.0391C118.888 18.0703 118.966 18.0859 119.048 18.0859H120.033C120.275 18.0859 120.504 18.127 120.718 18.209C120.933 18.2871 121.121 18.3984 121.281 18.543C121.441 18.6875 121.566 18.8613 121.656 19.0645C121.75 19.2676 121.796 19.4902 121.796 19.7324V19.7559ZM121.14 14.6055C121.14 14.4609 121.113 14.3262 121.058 14.2012C121.004 14.0723 120.927 13.9609 120.83 13.8672C120.736 13.7734 120.625 13.6992 120.496 13.6445C120.371 13.5898 120.236 13.5625 120.091 13.5625H119.494C119.349 13.5625 119.213 13.5898 119.084 13.6445C118.959 13.6992 118.849 13.7734 118.755 13.8672C118.662 13.9609 118.588 14.0723 118.533 14.2012C118.478 14.3262 118.451 14.4609 118.451 14.6055V15.1387C118.451 15.2832 118.478 15.4199 118.533 15.5488C118.588 15.6738 118.662 15.7832 118.755 15.877C118.849 15.9707 118.959 16.0449 119.084 16.0996C119.213 16.1543 119.349 16.1816 119.494 16.1816H120.091C120.236 16.1816 120.371 16.1543 120.496 16.0996C120.625 16.0449 120.736 15.9707 120.83 15.877C120.927 15.7832 121.004 15.6738 121.058 15.5488C121.113 15.4199 121.14 15.2832 121.14 15.1387V14.6055ZM121.111 19.6973C121.111 19.5527 121.084 19.4219 121.029 19.3047C120.974 19.1914 120.9 19.0957 120.806 19.0176C120.713 18.9395 120.601 18.8789 120.472 18.8359C120.347 18.793 120.213 18.7715 120.068 18.7715H119.699C119.554 18.7715 119.418 18.793 119.289 18.8359C119.164 18.8789 119.054 18.9395 118.961 19.0176C118.867 19.0957 118.793 19.1914 118.738 19.3047C118.683 19.4219 118.656 19.5527 118.656 19.6973V19.791C118.656 19.9355 118.683 20.0645 118.738 20.1777C118.793 20.291 118.867 20.3867 118.961 20.4648C119.054 20.5469 119.164 20.6094 119.289 20.6523C119.418 20.6953 119.554 20.7168 119.699 20.7168H120.068C120.213 20.7168 120.347 20.6953 120.472 20.6523C120.601 20.6094 120.713 20.5469 120.806 20.4648C120.9 20.3867 120.974 20.291 121.029 20.1777C121.084 20.0645 121.111 19.9355 121.111 19.791V19.6973Z" fill="#BDBDBD"/>
<path d="M69.7 26.8H71.82L77.34 41H74.98L73.48 37.14H68L66.52 41H64.14L69.7 26.8ZM73.04 35.48L70.76 29.26L68.4 35.48H73.04ZM84.9061 41.2C84.0661 41.2 83.3261 41 82.6861 40.6C82.0461 40.2 81.5394 39.68 81.1661 39.04V45.26H78.9661V30.54H80.9061V32.42C81.3061 31.7933 81.8261 31.2933 82.4661 30.92C83.1061 30.5467 83.8194 30.36 84.6061 30.36C85.5661 30.36 86.4128 30.6133 87.1461 31.12C87.8928 31.6133 88.4794 32.2733 88.9061 33.1C89.3328 33.9133 89.5461 34.8 89.5461 35.76C89.5461 36.7733 89.3461 37.6933 88.9461 38.52C88.5461 39.3333 87.9994 39.9867 87.3061 40.48C86.6128 40.96 85.8128 41.2 84.9061 41.2ZM84.1861 39.32C84.8128 39.32 85.3528 39.1533 85.8061 38.82C86.2728 38.4733 86.6328 38.0333 86.8861 37.5C87.1528 36.9533 87.2861 36.3733 87.2861 35.76C87.2861 35.12 87.1394 34.5333 86.8461 34C86.5661 33.4667 86.1794 33.04 85.6861 32.72C85.2061 32.4 84.6528 32.24 84.0261 32.24C83.6528 32.24 83.2594 32.3333 82.8461 32.52C82.4461 32.7067 82.0928 32.9533 81.7861 33.26C81.4794 33.5667 81.2728 33.9133 81.1661 34.3V37.04C81.4328 37.68 81.8394 38.22 82.3861 38.66C82.9461 39.1 83.5461 39.32 84.1861 39.32ZM97.6147 41.2C96.7747 41.2 96.0347 41 95.3947 40.6C94.7547 40.2 94.248 39.68 93.8747 39.04V45.26H91.6747V30.54H93.6147V32.42C94.0147 31.7933 94.5347 31.2933 95.1747 30.92C95.8147 30.5467 96.528 30.36 97.3147 30.36C98.2747 30.36 99.1214 30.6133 99.8547 31.12C100.601 31.6133 101.188 32.2733 101.615 33.1C102.041 33.9133 102.255 34.8 102.255 35.76C102.255 36.7733 102.055 37.6933 101.655 38.52C101.255 39.3333 100.708 39.9867 100.015 40.48C99.3214 40.96 98.5214 41.2 97.6147 41.2ZM96.8947 39.32C97.5214 39.32 98.0614 39.1533 98.5147 38.82C98.9814 38.4733 99.3414 38.0333 99.5947 37.5C99.8614 36.9533 99.9947 36.3733 99.9947 35.76C99.9947 35.12 99.848 34.5333 99.5547 34C99.2747 33.4667 98.888 33.04 98.3947 32.72C97.9147 32.4 97.3614 32.24 96.7347 32.24C96.3614 32.24 95.968 32.3333 95.5547 32.52C95.1547 32.7067 94.8014 32.9533 94.4947 33.26C94.188 33.5667 93.9814 33.9133 93.8747 34.3V37.04C94.1414 37.68 94.548 38.22 95.0947 38.66C95.6547 39.1 96.2547 39.32 96.8947 39.32ZM118.155 30.14C117.981 29.94 117.695 29.7333 117.295 29.52C116.908 29.2933 116.455 29.1 115.935 28.94C115.415 28.78 114.875 28.7 114.315 28.7C113.368 28.7 112.668 28.8733 112.215 29.22C111.775 29.5667 111.555 30.0467 111.555 30.66C111.555 31.1133 111.681 31.4733 111.935 31.74C112.188 31.9933 112.575 32.2133 113.095 32.4C113.615 32.5733 114.268 32.7533 115.055 32.94C116.015 33.1667 116.841 33.44 117.535 33.76C118.241 34.0667 118.781 34.48 119.155 35C119.541 35.52 119.735 36.2067 119.735 37.06C119.735 38.0333 119.501 38.82 119.035 39.42C118.568 40.02 117.935 40.46 117.135 40.74C116.348 41.0067 115.481 41.14 114.535 41.14C113.455 41.14 112.408 40.9733 111.395 40.64C110.381 40.3067 109.475 39.8333 108.675 39.22L109.695 37.3C109.921 37.5267 110.281 37.7867 110.775 38.08C111.268 38.36 111.841 38.6067 112.495 38.82C113.161 39.02 113.855 39.12 114.575 39.12C115.455 39.12 116.135 38.9667 116.615 38.66C117.095 38.34 117.335 37.8867 117.335 37.3C117.335 36.82 117.175 36.44 116.855 36.16C116.548 35.8667 116.101 35.6267 115.515 35.44C114.941 35.24 114.248 35.0333 113.435 34.82C112.501 34.58 111.721 34.3067 111.095 34C110.468 33.6933 109.995 33.3067 109.675 32.84C109.368 32.3733 109.215 31.7667 109.215 31.02C109.215 30.0867 109.441 29.3 109.895 28.66C110.348 28.0067 110.961 27.52 111.735 27.2C112.521 26.8667 113.401 26.7 114.375 26.7C115.335 26.7 116.221 26.8533 117.035 27.16C117.848 27.4667 118.561 27.8467 119.175 28.3L118.155 30.14ZM127.456 40.46C127.176 40.5933 126.79 40.7467 126.296 40.92C125.803 41.08 125.276 41.16 124.716 41.16C124.023 41.16 123.423 40.9733 122.916 40.6C122.423 40.2267 122.176 39.62 122.176 38.78V32.24H120.796V30.54H122.176V27.1H124.376V30.54H126.656V32.24H124.376V38.08C124.403 38.4533 124.516 38.7267 124.716 38.9C124.93 39.06 125.19 39.14 125.496 39.14C125.803 39.14 126.096 39.0867 126.376 38.98C126.656 38.8733 126.863 38.7867 126.996 38.72L127.456 40.46ZM133.693 41.2C132.6 41.2 131.647 40.9533 130.833 40.46C130.033 39.9533 129.413 39.2933 128.973 38.48C128.533 37.6533 128.313 36.7533 128.313 35.78C128.313 34.8067 128.533 33.9133 128.973 33.1C129.427 32.2733 130.053 31.6133 130.853 31.12C131.667 30.6133 132.613 30.36 133.693 30.36C134.773 30.36 135.713 30.6133 136.513 31.12C137.327 31.6133 137.953 32.2733 138.393 33.1C138.847 33.9133 139.073 34.8067 139.073 35.78C139.073 36.7533 138.853 37.6533 138.413 38.48C137.973 39.2933 137.347 39.9533 136.533 40.46C135.733 40.9533 134.787 41.2 133.693 41.2ZM130.573 35.8C130.573 36.4667 130.713 37.0667 130.993 37.6C131.273 38.1333 131.647 38.5533 132.113 38.86C132.58 39.1667 133.107 39.32 133.693 39.32C134.267 39.32 134.787 39.1667 135.253 38.86C135.733 38.54 136.113 38.1133 136.393 37.58C136.673 37.0467 136.813 36.4467 136.813 35.78C136.813 35.1133 136.673 34.5133 136.393 33.98C136.113 33.4467 135.733 33.0267 135.253 32.72C134.787 32.4 134.267 32.24 133.693 32.24C133.12 32.24 132.593 32.4 132.113 32.72C131.647 33.0267 131.273 33.4533 130.993 34C130.713 34.5333 130.573 35.1333 130.573 35.8ZM147.055 32.44C146.201 32.4667 145.441 32.6667 144.775 33.04C144.121 33.4 143.655 33.92 143.375 34.6V41H141.175V30.54H143.215V32.88C143.575 32.16 144.048 31.5867 144.635 31.16C145.221 30.72 145.841 30.48 146.495 30.44C146.615 30.44 146.721 30.44 146.815 30.44C146.908 30.44 146.988 30.4467 147.055 30.46V32.44ZM153.369 41.2C152.289 41.2 151.343 40.9533 150.529 40.46C149.716 39.9667 149.083 39.3133 148.629 38.5C148.176 37.6733 147.949 36.7733 147.949 35.8C147.949 34.8133 148.176 33.9067 148.629 33.08C149.083 32.2533 149.716 31.5933 150.529 31.1C151.343 30.6067 152.296 30.36 153.389 30.36C154.483 30.36 155.429 30.6133 156.229 31.12C157.029 31.6133 157.643 32.2667 158.069 33.08C158.509 33.8933 158.729 34.7667 158.729 35.7C158.729 36.0333 158.709 36.3 158.669 36.5H150.289C150.329 37.1133 150.496 37.6533 150.789 38.12C151.096 38.5733 151.476 38.9333 151.929 39.2C152.396 39.4533 152.903 39.58 153.449 39.58C154.036 39.58 154.589 39.4333 155.109 39.14C155.629 38.8467 155.989 38.46 156.189 37.98L158.069 38.52C157.709 39.3067 157.109 39.9533 156.269 40.46C155.443 40.9533 154.476 41.2 153.369 41.2ZM150.229 35.04H156.549C156.496 34.44 156.323 33.9133 156.029 33.46C155.736 32.9933 155.356 32.6333 154.889 32.38C154.436 32.1133 153.929 31.98 153.369 31.98C152.823 31.98 152.316 32.1133 151.849 32.38C151.396 32.6333 151.023 32.9933 150.729 33.46C150.436 33.9133 150.269 34.44 150.229 35.04Z" fill="white"/>
<defs>
<clipPath id="clip0_38_50537">
<rect width="36" height="32" fill="white" transform="translate(16 8)"/>
</clipPath>
</defs>
</svg>
