<svg width="196" height="54" viewBox="0 0 196 54" fill="none" xmlns="http://www.w3.org/2000/svg">
<rect width="196" height="54" rx="4" fill="#111111"/>
<path d="M38.8719 25.644L23.3537 11.813L43.0974 21.888L38.8719 25.644ZM19.3048 11C18.3902 11.425 17.7793 12.2 17.7793 13.206V40.787C17.7793 41.793 18.3913 42.568 19.3048 42.993L37.3475 26.993L19.3048 11ZM49.2005 25.1L45.0594 22.969L40.4402 27L45.0594 31.031L49.2849 28.9C50.5505 28.007 50.5505 25.994 49.2005 25.1ZM23.3548 42.188L43.0985 32.113L38.873 28.357L23.3548 42.188Z" fill="white"/>
<path d="M67.1699 14.9805V19H66.4141V14.9922L64.2402 10.5977H65.0547L66.7832 14.0898L68.5117 10.5977H69.3262L67.1699 14.9805ZM74.0914 19L73.693 18.3906C73.5289 18.6133 73.3238 18.791 73.0777 18.9238C72.8316 19.0527 72.5621 19.1172 72.2691 19.1172H72.0875C71.8453 19.1172 71.6168 19.0723 71.402 18.9824C71.1871 18.8887 70.9996 18.7617 70.8395 18.6016C70.6793 18.4414 70.5523 18.2539 70.4586 18.0391C70.3688 17.8242 70.3238 17.5957 70.3238 17.3535V13H71.0445V17.3945C71.0445 17.5391 71.0719 17.6758 71.1266 17.8047C71.1813 17.9297 71.2555 18.0391 71.3492 18.1328C71.443 18.2266 71.5523 18.3008 71.6773 18.3555C71.8063 18.4102 71.943 18.4375 72.0875 18.4375H72.568C72.7125 18.4375 72.8473 18.4102 72.9723 18.3555C73.1012 18.3008 73.2125 18.2266 73.3063 18.1328C73.4 18.0391 73.4742 17.9297 73.5289 17.8047C73.5836 17.6758 73.6109 17.5391 73.6109 17.3945V13H74.3316V19H74.0914ZM79.7238 19L77.2746 16L79.7238 13H80.6613L78.1535 16L80.6613 19H79.7238ZM76.4133 19V10.5977H77.134V19H76.4133ZM82.2625 19V10.5977H82.9832V19H82.2625ZM88.8383 19L88.4398 18.4023C88.2758 18.6172 88.0707 18.791 87.8246 18.9238C87.5785 19.0527 87.309 19.1172 87.016 19.1172H86.8344C86.5922 19.1172 86.3637 19.0723 86.1488 18.9824C85.934 18.8887 85.7465 18.7617 85.5863 18.6016C85.4262 18.4414 85.2992 18.2539 85.2055 18.0391C85.1156 17.8242 85.0707 17.5957 85.0707 17.3535V17.2949C85.0707 17.0527 85.1156 16.8242 85.2055 16.6094C85.2992 16.3945 85.4262 16.207 85.5863 16.0469C85.7465 15.8867 85.934 15.7617 86.1488 15.6719C86.3637 15.5781 86.5922 15.5312 86.8344 15.5312H88.3578V14.6055C88.3578 14.4609 88.3305 14.3262 88.2758 14.2012C88.2211 14.0723 88.1469 13.9609 88.0531 13.8672C87.9594 13.7734 87.848 13.6992 87.7191 13.6445C87.5941 13.5898 87.4594 13.5625 87.3148 13.5625H86.893C86.7484 13.5625 86.6117 13.5898 86.4828 13.6445C86.3578 13.6992 86.2484 13.7734 86.1547 13.8672C86.0609 13.9609 85.9867 14.0723 85.932 14.2012C85.8773 14.3262 85.85 14.4609 85.85 14.6055V14.8223L85.1293 14.7051V14.6465C85.1293 14.4043 85.1742 14.1758 85.2641 13.9609C85.3578 13.7461 85.4848 13.5586 85.6449 13.3984C85.8051 13.2383 85.9926 13.1133 86.2074 13.0234C86.4223 12.9297 86.6508 12.8828 86.893 12.8828H87.3148C87.557 12.8828 87.7855 12.9297 88.0004 13.0234C88.2152 13.1133 88.4027 13.2383 88.5629 13.3984C88.723 13.5586 88.848 13.7461 88.9379 13.9609C89.0316 14.1758 89.0785 14.4043 89.0785 14.6465V19H88.8383ZM88.3578 16.0938H86.8344C86.6898 16.0938 86.5531 16.1211 86.4242 16.1758C86.2992 16.2305 86.1898 16.3066 86.0961 16.4043C86.0023 16.498 85.9281 16.6094 85.8734 16.7383C85.8188 16.8633 85.7914 16.998 85.7914 17.1426V17.3945C85.7914 17.5391 85.8188 17.6758 85.8734 17.8047C85.9281 17.9297 86.0023 18.0391 86.0961 18.1328C86.1898 18.2266 86.2992 18.3008 86.4242 18.3555C86.5531 18.4102 86.6898 18.4375 86.8344 18.4375H87.3148C87.4594 18.4375 87.5941 18.4102 87.7191 18.3555C87.848 18.3008 87.9594 18.2266 88.0531 18.1328C88.1469 18.0391 88.2211 17.9297 88.2758 17.8047C88.3305 17.6758 88.3578 17.5391 88.3578 17.3945V16.0938ZM94.9277 17.3535C94.9277 17.5957 94.8809 17.8242 94.7871 18.0391C94.6973 18.2539 94.5723 18.4414 94.4121 18.6016C94.252 18.7617 94.0645 18.8887 93.8496 18.9824C93.6348 19.0723 93.4062 19.1172 93.1641 19.1172H92.6836C92.4414 19.1172 92.2129 19.0723 91.998 18.9824C91.7832 18.8887 91.5957 18.7617 91.4355 18.6016C91.2754 18.4414 91.1484 18.2539 91.0547 18.0391C90.9648 17.8242 90.9199 17.5957 90.9199 17.3535V10.5977H91.6406V13.5039C91.8047 13.3086 92.002 13.1562 92.2324 13.0469C92.4629 12.9375 92.7129 12.8828 92.9824 12.8828H93.1641C93.4062 12.8828 93.6348 12.9297 93.8496 13.0234C94.0645 13.1133 94.252 13.2383 94.4121 13.3984C94.5723 13.5586 94.6973 13.7461 94.7871 13.9609C94.8809 14.1758 94.9277 14.4043 94.9277 14.6465V17.3535ZM94.207 14.6055C94.207 14.4609 94.1797 14.3262 94.125 14.2012C94.0703 14.0723 93.9961 13.9609 93.9023 13.8672C93.8086 13.7734 93.6973 13.6992 93.5684 13.6445C93.4434 13.5898 93.3086 13.5625 93.1641 13.5625H92.6836C92.5391 13.5625 92.4023 13.5898 92.2734 13.6445C92.1484 13.6992 92.0391 13.7734 91.9453 13.8672C91.8516 13.9609 91.7773 14.0723 91.7227 14.2012C91.668 14.3262 91.6406 14.4609 91.6406 14.6055V17.3945C91.6406 17.5391 91.668 17.6758 91.7227 17.8047C91.7773 17.9297 91.8516 18.0391 91.9453 18.1328C92.0391 18.2266 92.1484 18.3008 92.2734 18.3555C92.4023 18.4102 92.5391 18.4375 92.6836 18.4375H93.1641C93.3086 18.4375 93.4434 18.4102 93.5684 18.3555C93.6973 18.3008 93.8086 18.2266 93.9023 18.1328C93.9961 18.0391 94.0703 17.9297 94.125 17.8047C94.1797 17.6758 94.207 17.5391 94.207 17.3945V14.6055ZM103.943 17.3535C103.943 17.5957 103.896 17.8242 103.802 18.0391C103.712 18.2539 103.587 18.4414 103.427 18.6016C103.267 18.7617 103.079 18.8887 102.864 18.9824C102.65 19.0723 102.421 19.1172 102.179 19.1172H101.698C101.456 19.1172 101.228 19.0723 101.013 18.9824C100.798 18.8887 100.611 18.7617 100.45 18.6016C100.29 18.4414 100.163 18.2539 100.07 18.0391C99.9797 17.8242 99.9348 17.5957 99.9348 17.3535V14.6465C99.9348 14.4043 99.9797 14.1758 100.07 13.9609C100.163 13.7461 100.29 13.5586 100.45 13.3984C100.611 13.2383 100.798 13.1133 101.013 13.0234C101.228 12.9297 101.456 12.8828 101.698 12.8828H102.179C102.421 12.8828 102.65 12.9297 102.864 13.0234C103.079 13.1133 103.267 13.2383 103.427 13.3984C103.587 13.5586 103.712 13.7461 103.802 13.9609C103.896 14.1758 103.943 14.4043 103.943 14.6465V17.3535ZM103.222 14.6055C103.222 14.4609 103.195 14.3262 103.14 14.2012C103.085 14.0723 103.011 13.9609 102.917 13.8672C102.823 13.7734 102.712 13.6992 102.583 13.6445C102.458 13.5898 102.323 13.5625 102.179 13.5625H101.698C101.554 13.5625 101.417 13.5898 101.288 13.6445C101.163 13.6992 101.054 13.7734 100.96 13.8672C100.866 13.9609 100.792 14.0723 100.737 14.2012C100.683 14.3262 100.655 14.4609 100.655 14.6055V17.3945C100.655 17.5391 100.683 17.6758 100.737 17.8047C100.792 17.9297 100.866 18.0391 100.96 18.1328C101.054 18.2266 101.163 18.3008 101.288 18.3555C101.417 18.4102 101.554 18.4375 101.698 18.4375H102.179C102.323 18.4375 102.458 18.4102 102.583 18.3555C102.712 18.3008 102.823 18.2266 102.917 18.1328C103.011 18.0391 103.085 17.9297 103.14 17.8047C103.195 17.6758 103.222 17.5391 103.222 17.3945V14.6055ZM106.024 19V10.5977H106.745V19H106.024ZM109.014 11.5586V10.5977H109.852V11.5586H109.014ZM109.073 19V13H109.793V19H109.073ZM115.168 19V14.6055C115.168 14.4609 115.141 14.3262 115.086 14.2012C115.031 14.0723 114.957 13.9609 114.863 13.8672C114.77 13.7734 114.658 13.6992 114.529 13.6445C114.404 13.5898 114.27 13.5625 114.125 13.5625H113.645C113.5 13.5625 113.363 13.5898 113.234 13.6445C113.109 13.6992 113 13.7734 112.906 13.8672C112.812 13.9609 112.738 14.0723 112.684 14.2012C112.629 14.3262 112.602 14.4609 112.602 14.6055V19H111.881V13H112.121L112.514 13.6094C112.678 13.3867 112.883 13.2109 113.129 13.082C113.379 12.9492 113.65 12.8828 113.943 12.8828H114.125C114.367 12.8828 114.596 12.9297 114.811 13.0234C115.025 13.1133 115.213 13.2383 115.373 13.3984C115.533 13.5586 115.658 13.7461 115.748 13.9609C115.842 14.1758 115.889 14.4043 115.889 14.6465V19H115.168ZM121.796 19.7559C121.796 19.998 121.75 20.2207 121.656 20.4238C121.566 20.627 121.441 20.8008 121.281 20.9453C121.121 21.0898 120.933 21.2012 120.718 21.2793C120.504 21.3613 120.275 21.4023 120.033 21.4023H119.734C119.492 21.4023 119.263 21.3613 119.048 21.2793C118.834 21.2012 118.646 21.0898 118.486 20.9453C118.326 20.8008 118.199 20.627 118.105 20.4238C118.015 20.2207 117.97 19.998 117.97 19.7559V19.7324C117.97 19.498 118.013 19.2832 118.099 19.0879C118.185 18.8926 118.302 18.7227 118.451 18.5781C118.263 18.4648 118.113 18.3125 118 18.1211C117.89 17.9258 117.836 17.7109 117.836 17.4766C117.836 17.2656 117.88 17.0703 117.97 16.8906C118.06 16.707 118.183 16.5586 118.339 16.4453C118.152 16.2812 118.004 16.084 117.894 15.8535C117.785 15.623 117.73 15.3711 117.73 15.0977V14.6465C117.73 14.4043 117.775 14.1758 117.865 13.9609C117.959 13.7461 118.086 13.5586 118.246 13.3984C118.406 13.2383 118.593 13.1133 118.808 13.0234C119.023 12.9297 119.252 12.8828 119.494 12.8828H119.793C120.086 12.8828 120.355 12.9492 120.601 13.082C120.851 13.2109 121.058 13.3867 121.222 13.6094L121.615 13H121.855V15.0977C121.855 15.3398 121.808 15.5684 121.714 15.7832C121.625 15.998 121.5 16.1855 121.339 16.3457C121.179 16.5059 120.992 16.6328 120.777 16.7266C120.562 16.8164 120.334 16.8613 120.091 16.8613H119.048C118.966 16.8613 118.888 16.8789 118.814 16.9141C118.74 16.9453 118.673 16.9883 118.615 17.043C118.56 17.0977 118.517 17.1641 118.486 17.2422C118.455 17.3164 118.439 17.3945 118.439 17.4766C118.439 17.5586 118.455 17.6367 118.486 17.7109C118.517 17.7852 118.56 17.8516 118.615 17.9102C118.673 17.9648 118.74 18.0078 118.814 18.0391C118.888 18.0703 118.966 18.0859 119.048 18.0859H120.033C120.275 18.0859 120.504 18.127 120.718 18.209C120.933 18.2871 121.121 18.3984 121.281 18.543C121.441 18.6875 121.566 18.8613 121.656 19.0645C121.75 19.2676 121.796 19.4902 121.796 19.7324V19.7559ZM121.14 14.6055C121.14 14.4609 121.113 14.3262 121.058 14.2012C121.004 14.0723 120.927 13.9609 120.83 13.8672C120.736 13.7734 120.625 13.6992 120.496 13.6445C120.371 13.5898 120.236 13.5625 120.091 13.5625H119.494C119.349 13.5625 119.213 13.5898 119.084 13.6445C118.959 13.6992 118.849 13.7734 118.755 13.8672C118.662 13.9609 118.588 14.0723 118.533 14.2012C118.478 14.3262 118.451 14.4609 118.451 14.6055V15.1387C118.451 15.2832 118.478 15.4199 118.533 15.5488C118.588 15.6738 118.662 15.7832 118.755 15.877C118.849 15.9707 118.959 16.0449 119.084 16.0996C119.213 16.1543 119.349 16.1816 119.494 16.1816H120.091C120.236 16.1816 120.371 16.1543 120.496 16.0996C120.625 16.0449 120.736 15.9707 120.83 15.877C120.927 15.7832 121.004 15.6738 121.058 15.5488C121.113 15.4199 121.14 15.2832 121.14 15.1387V14.6055ZM121.111 19.6973C121.111 19.5527 121.084 19.4219 121.029 19.3047C120.974 19.1914 120.9 19.0957 120.806 19.0176C120.713 18.9395 120.601 18.8789 120.472 18.8359C120.347 18.793 120.213 18.7715 120.068 18.7715H119.699C119.554 18.7715 119.418 18.793 119.289 18.8359C119.164 18.8789 119.054 18.9395 118.961 19.0176C118.867 19.0957 118.793 19.1914 118.738 19.3047C118.683 19.4219 118.656 19.5527 118.656 19.6973V19.791C118.656 19.9355 118.683 20.0645 118.738 20.1777C118.793 20.291 118.867 20.3867 118.961 20.4648C119.054 20.5469 119.164 20.6094 119.289 20.6523C119.418 20.6953 119.554 20.7168 119.699 20.7168H120.068C120.213 20.7168 120.347 20.6953 120.472 20.6523C120.601 20.6094 120.713 20.5469 120.806 20.4648C120.9 20.3867 120.974 20.291 121.029 20.1777C121.084 20.0645 121.111 19.9355 121.111 19.791V19.6973Z" fill="#BDBDBD"/>
<path d="M71.4 41.1C70.4533 41.1 69.5733 40.9067 68.76 40.52C67.96 40.1333 67.2533 39.6 66.64 38.92C66.04 38.24 65.5667 37.4667 65.22 36.6C64.8867 35.7333 64.72 34.8133 64.72 33.84C64.72 32.88 64.8867 31.9733 65.22 31.12C65.5533 30.2533 66.0267 29.4933 66.64 28.84C67.2533 28.1733 67.9667 27.6533 68.78 27.28C69.6067 26.8933 70.5067 26.7 71.48 26.7C72.8267 26.7 73.96 26.9867 74.88 27.56C75.8 28.12 76.5 28.8667 76.98 29.8L75.26 31.04C74.8733 30.2667 74.34 29.6867 73.66 29.3C72.98 28.9133 72.2333 28.72 71.42 28.72C70.5267 28.72 69.7467 28.9667 69.08 29.46C68.4133 29.94 67.9 30.5733 67.54 31.36C67.18 32.1467 67 32.9933 67 33.9C67 34.86 67.2 35.7333 67.6 36.52C68 37.2933 68.54 37.9133 69.22 38.38C69.9133 38.8467 70.7 39.08 71.58 39.08C73.0467 39.08 74.3667 38.38 75.54 36.98V35.48H72.56V33.82H77.42V41H75.54V39.24C74.3533 40.48 72.9733 41.1 71.4 41.1ZM84.545 41.2C83.4517 41.2 82.4983 40.9533 81.685 40.46C80.885 39.9533 80.265 39.2933 79.825 38.48C79.385 37.6533 79.165 36.7533 79.165 35.78C79.165 34.8067 79.385 33.9133 79.825 33.1C80.2783 32.2733 80.905 31.6133 81.705 31.12C82.5183 30.6133 83.465 30.36 84.545 30.36C85.625 30.36 86.565 30.6133 87.365 31.12C88.1783 31.6133 88.805 32.2733 89.245 33.1C89.6983 33.9133 89.925 34.8067 89.925 35.78C89.925 36.7533 89.705 37.6533 89.265 38.48C88.825 39.2933 88.1983 39.9533 87.385 40.46C86.585 40.9533 85.6383 41.2 84.545 41.2ZM81.425 35.8C81.425 36.4667 81.565 37.0667 81.845 37.6C82.125 38.1333 82.4983 38.5533 82.965 38.86C83.4317 39.1667 83.9583 39.32 84.545 39.32C85.1183 39.32 85.6383 39.1667 86.105 38.86C86.585 38.54 86.965 38.1133 87.245 37.58C87.525 37.0467 87.665 36.4467 87.665 35.78C87.665 35.1133 87.525 34.5133 87.245 33.98C86.965 33.4467 86.585 33.0267 86.105 32.72C85.6383 32.4 85.1183 32.24 84.545 32.24C83.9717 32.24 83.445 32.4 82.965 32.72C82.4983 33.0267 82.125 33.4533 81.845 34C81.565 34.5333 81.425 35.1333 81.425 35.8ZM96.7262 41.2C95.6329 41.2 94.6796 40.9533 93.8662 40.46C93.0662 39.9533 92.4462 39.2933 92.0062 38.48C91.5662 37.6533 91.3462 36.7533 91.3462 35.78C91.3462 34.8067 91.5662 33.9133 92.0062 33.1C92.4596 32.2733 93.0862 31.6133 93.8862 31.12C94.6996 30.6133 95.6462 30.36 96.7262 30.36C97.8062 30.36 98.7462 30.6133 99.5462 31.12C100.36 31.6133 100.986 32.2733 101.426 33.1C101.88 33.9133 102.106 34.8067 102.106 35.78C102.106 36.7533 101.886 37.6533 101.446 38.48C101.006 39.2933 100.38 39.9533 99.5662 40.46C98.7662 40.9533 97.8196 41.2 96.7262 41.2ZM93.6062 35.8C93.6062 36.4667 93.7462 37.0667 94.0262 37.6C94.3062 38.1333 94.6796 38.5533 95.1462 38.86C95.6129 39.1667 96.1396 39.32 96.7262 39.32C97.2996 39.32 97.8196 39.1667 98.2862 38.86C98.7662 38.54 99.1462 38.1133 99.4262 37.58C99.7062 37.0467 99.8462 36.4467 99.8462 35.78C99.8462 35.1133 99.7062 34.5133 99.4262 33.98C99.1462 33.4467 98.7662 33.0267 98.2862 32.72C97.8196 32.4 97.2996 32.24 96.7262 32.24C96.1529 32.24 95.6262 32.4 95.1462 32.72C94.6796 33.0267 94.3062 33.4533 94.0262 34C93.7462 34.5333 93.6062 35.1333 93.6062 35.8ZM108.348 41.1C107.401 41.1 106.568 40.8533 105.848 40.36C105.141 39.8667 104.581 39.22 104.168 38.42C103.768 37.6067 103.568 36.7267 103.568 35.78C103.568 34.7933 103.774 33.8867 104.188 33.06C104.601 32.2333 105.168 31.58 105.888 31.1C106.621 30.6067 107.468 30.36 108.428 30.36C109.268 30.36 110.001 30.56 110.628 30.96C111.268 31.36 111.794 31.88 112.208 32.52V30.54H114.148V40.7C114.148 41.7133 113.901 42.5733 113.408 43.28C112.928 43.9867 112.268 44.5267 111.428 44.9C110.588 45.2733 109.641 45.46 108.588 45.46C107.428 45.46 106.461 45.26 105.688 44.86C104.928 44.46 104.288 43.9133 103.768 43.22L105.008 42.06C105.408 42.62 105.921 43.0467 106.548 43.34C107.188 43.6333 107.868 43.78 108.588 43.78C109.188 43.78 109.741 43.6667 110.248 43.44C110.768 43.2267 111.181 42.8933 111.488 42.44C111.794 41.9867 111.948 41.4067 111.948 40.7V39.1C111.574 39.7267 111.061 40.22 110.408 40.58C109.754 40.9267 109.068 41.1 108.348 41.1ZM109.068 39.32C109.508 39.32 109.928 39.2267 110.328 39.04C110.728 38.84 111.068 38.58 111.348 38.26C111.641 37.94 111.841 37.6 111.948 37.24V34.5C111.681 33.8333 111.261 33.2933 110.688 32.88C110.128 32.4533 109.534 32.24 108.908 32.24C108.268 32.24 107.714 32.4133 107.248 32.76C106.794 33.1067 106.441 33.56 106.188 34.12C105.934 34.6667 105.808 35.24 105.808 35.84C105.808 36.48 105.948 37.0667 106.228 37.6C106.521 38.12 106.914 38.54 107.408 38.86C107.901 39.1667 108.454 39.32 109.068 39.32ZM116.956 26.4H119.156V37.98C119.156 38.5133 119.236 38.8533 119.396 39C119.556 39.1467 119.756 39.22 119.996 39.22C120.262 39.22 120.516 39.1933 120.756 39.14C120.996 39.0867 121.196 39.02 121.356 38.94L121.676 40.68C121.356 40.8133 120.976 40.9267 120.536 41.02C120.096 41.1133 119.702 41.16 119.356 41.16C118.609 41.16 118.022 40.9533 117.596 40.54C117.169 40.1133 116.956 39.5267 116.956 38.78V26.4ZM127.841 41.2C126.761 41.2 125.815 40.9533 125.001 40.46C124.188 39.9667 123.555 39.3133 123.101 38.5C122.648 37.6733 122.421 36.7733 122.421 35.8C122.421 34.8133 122.648 33.9067 123.101 33.08C123.555 32.2533 124.188 31.5933 125.001 31.1C125.815 30.6067 126.768 30.36 127.861 30.36C128.955 30.36 129.901 30.6133 130.701 31.12C131.501 31.6133 132.115 32.2667 132.541 33.08C132.981 33.8933 133.201 34.7667 133.201 35.7C133.201 36.0333 133.181 36.3 133.141 36.5H124.761C124.801 37.1133 124.968 37.6533 125.261 38.12C125.568 38.5733 125.948 38.9333 126.401 39.2C126.868 39.4533 127.375 39.58 127.921 39.58C128.508 39.58 129.061 39.4333 129.581 39.14C130.101 38.8467 130.461 38.46 130.661 37.98L132.541 38.52C132.181 39.3067 131.581 39.9533 130.741 40.46C129.915 40.9533 128.948 41.2 127.841 41.2ZM124.701 35.04H131.021C130.968 34.44 130.795 33.9133 130.501 33.46C130.208 32.9933 129.828 32.6333 129.361 32.38C128.908 32.1133 128.401 31.98 127.841 31.98C127.295 31.98 126.788 32.1133 126.321 32.38C125.868 32.6333 125.495 32.9933 125.201 33.46C124.908 33.9133 124.741 34.44 124.701 35.04ZM140.517 41V26.8H146.477C147.117 26.8 147.704 26.9333 148.237 27.2C148.784 27.4667 149.251 27.82 149.637 28.26C150.037 28.7 150.344 29.1933 150.557 29.74C150.771 30.2867 150.877 30.8467 150.877 31.42C150.877 32.22 150.697 32.9733 150.337 33.68C149.977 34.3867 149.477 34.96 148.837 35.4C148.197 35.84 147.451 36.06 146.597 36.06H142.757V41H140.517ZM142.757 34.08H146.457C147.084 34.08 147.597 33.8267 147.997 33.32C148.397 32.8133 148.597 32.18 148.597 31.42C148.597 30.9 148.491 30.4467 148.277 30.06C148.064 29.66 147.784 29.3467 147.437 29.12C147.104 28.8933 146.737 28.78 146.337 28.78H142.757V34.08ZM152.868 26.4H155.068V37.98C155.068 38.5133 155.148 38.8533 155.308 39C155.468 39.1467 155.668 39.22 155.908 39.22C156.175 39.22 156.428 39.1933 156.668 39.14C156.908 39.0867 157.108 39.02 157.268 38.94L157.588 40.68C157.268 40.8133 156.888 40.9267 156.448 41.02C156.008 41.1133 155.615 41.16 155.268 41.16C154.521 41.16 153.935 40.9533 153.508 40.54C153.081 40.1133 152.868 39.5267 152.868 38.78V26.4ZM158.254 37.94C158.254 37.2733 158.44 36.6933 158.814 36.2C159.187 35.6933 159.707 35.3067 160.374 35.04C161.054 34.76 161.834 34.62 162.714 34.62C163.18 34.62 163.654 34.66 164.134 34.74C164.627 34.8067 165.06 34.9067 165.434 35.04V34.38C165.434 33.6467 165.214 33.0733 164.774 32.66C164.334 32.2467 163.7 32.04 162.874 32.04C162.3 32.04 161.747 32.14 161.214 32.34C160.68 32.54 160.127 32.8333 159.554 33.22L158.814 31.74C159.507 31.2867 160.2 30.9467 160.894 30.72C161.6 30.48 162.34 30.36 163.114 30.36C164.514 30.36 165.614 30.7333 166.414 31.48C167.227 32.2133 167.634 33.26 167.634 34.62V38.52C167.634 38.7733 167.674 38.9533 167.754 39.06C167.847 39.1667 168 39.2267 168.214 39.24V41C168.014 41.04 167.834 41.0667 167.674 41.08C167.514 41.0933 167.38 41.1 167.274 41.1C166.794 41.1 166.434 40.9867 166.194 40.76C165.967 40.52 165.834 40.2533 165.794 39.96L165.734 39.36C165.28 39.9467 164.7 40.4 163.994 40.72C163.287 41.04 162.574 41.2 161.854 41.2C161.16 41.2 160.54 41.06 159.994 40.78C159.447 40.4867 159.02 40.0933 158.714 39.6C158.407 39.1067 158.254 38.5533 158.254 37.94ZM164.914 38.58C165.26 38.2333 165.434 37.9067 165.434 37.6V36.4C164.647 36.1067 163.847 35.96 163.034 35.96C162.234 35.96 161.58 36.1267 161.074 36.46C160.58 36.78 160.334 37.2133 160.334 37.76C160.334 38.2133 160.514 38.6333 160.874 39.02C161.247 39.3933 161.78 39.58 162.474 39.58C162.94 39.58 163.394 39.4867 163.834 39.3C164.274 39.1133 164.634 38.8733 164.914 38.58ZM170.442 43.46C170.642 43.5 170.835 43.5333 171.022 43.56C171.222 43.5867 171.382 43.6 171.502 43.6C171.728 43.6 171.922 43.5267 172.082 43.38C172.255 43.2467 172.428 42.9933 172.602 42.62C172.775 42.2467 172.988 41.7067 173.242 41L168.942 30.54H171.242L174.442 38.76L177.282 30.54H179.402L174.662 43.42C174.448 44.0067 174.075 44.5067 173.542 44.92C173.022 45.3333 172.348 45.54 171.522 45.54C171.362 45.54 171.195 45.5267 171.022 45.5C170.848 45.4733 170.655 45.4333 170.442 45.38V43.46Z" fill="white"/>
</svg>
